<svg width="214" height="81" viewBox="0 0 214 81" fill="none" xmlns="http://www.w3.org/2000/svg">
<path d="M126.593 17.6903V30.3183C126.593 31.4417 126.171 32.4622 125.479 33.1923C124.786 33.9317 123.84 34.3904 122.783 34.3904H119.356C117.25 34.3904 115.547 32.565 115.547 30.3183V21.8091C111.044 27.6224 112.383 26.0591 110.22 28.5865C109.743 29.1483 108.722 29.7191 107.74 29.7191H106.083C105.109 29.7191 104.089 29.1483 103.611 28.5865C101.468 26.0778 102.75 27.5757 98.4535 22.0338V30.3183C98.4535 31.4417 98.0323 32.4622 97.3396 33.1923C96.6469 33.9317 95.6921 34.3904 94.6436 34.3904H91.2175C89.1114 34.3904 87.4075 32.565 87.4075 30.3183V17.6903C87.4075 15.1442 87.726 12.6075 88.3623 10.1455L89.9539 3.9673H89.1394C88.3906 3.9673 87.7821 3.3588 87.7821 2.61936V2.05749C87.7821 1.30873 88.3906 0.700195 89.1394 0.700195H96.722C97.4708 0.700195 98.079 1.30873 98.079 2.05749V2.61936C98.079 3.3588 97.4708 3.9673 96.722 3.9673H95.9074L106.916 19.4146L118.102 3.9673H117.278C116.529 3.9673 115.93 3.3588 115.93 2.61936V2.05749C115.93 1.30873 116.529 0.700195 117.278 0.700195H124.861C125.609 0.700195 126.218 1.30873 126.218 2.05749V2.61936C126.218 3.3588 125.609 3.9673 124.861 3.9673H124.046L125.638 10.1455C126.274 12.6075 126.593 15.1442 126.593 17.6903Z" fill="white"/>
<path d="M83.2899 72.7302C82.6197 72.7302 82.0766 72.1868 82.0766 71.5167V56.4278C82.0766 56.2718 81.9499 56.1448 81.7937 56.1448H77.9689C75.8745 56.1448 74.6497 57.1636 74.1132 59.3502L71.0508 71.6384C70.9045 72.2528 70.3107 72.7302 69.6962 72.7302H65.7192C65.5327 72.7302 65.3695 72.6556 65.2627 72.5199C65.1522 72.3809 65.1164 72.1997 65.1608 72.0086L68.6605 57.8948C69.606 54.1118 72.5633 52.3492 77.9689 52.3492H86.6877C87.3575 52.3492 87.9006 52.8923 87.9006 53.5624V71.5173C87.9006 72.1871 87.3578 72.7302 86.688 72.7302H83.2899ZM181.448 67.4158C181.448 67.5684 181.368 67.7097 181.237 67.7884C179.921 68.6188 177.806 69.6137 175.236 69.6137C173.738 69.6137 172.604 69.0846 172.039 68.1885C171.78 67.7768 171.64 67.2881 171.64 66.7381C171.64 65.0932 173.042 63.941 175.032 63.941H181.165C181.322 63.941 181.448 64.0678 181.448 64.224V67.4158ZM177.122 51.9567C177.079 51.9543 177.035 51.9538 176.992 51.9538H176.936C175.309 51.9727 173.832 52.1777 172.553 52.518C172.529 52.524 172.506 52.5298 172.482 52.537C169.409 53.3707 167.492 54.9867 167.375 56.6431C167.371 56.6972 167.369 56.7496 167.369 56.8034C167.369 58.0833 169.026 58.8745 170.129 58.5052C170.303 58.4468 170.465 58.3612 170.616 58.2594C170.921 58.0573 171.192 57.788 171.473 57.5465C171.671 57.3779 171.877 57.2194 172.091 57.0711C172.53 56.7698 173.054 56.5107 173.624 56.3087C176.085 55.4402 179.434 55.6309 180.821 57.986C181.325 58.8413 181.448 59.2922 181.448 60.2669V60.4238H174.553C170.331 60.4238 165.819 62.0835 165.819 66.7381C165.819 67.2662 165.875 67.7562 165.983 68.2104C166.651 71.0538 169.282 72.4794 172.21 72.9492C172.981 73.0729 173.773 73.1309 174.553 73.1309C177.163 73.1309 179.317 72.4575 181.339 71.0233L181.448 70.9464L182.045 70.5214V71.9194C182.045 72.5885 182.587 73.1309 183.256 73.1309H184.064C185.834 73.1309 187.27 71.6958 187.27 69.9255V61.7212C187.27 55.2441 182.261 52.0861 177.122 51.9567ZM207.262 65.9663C207.262 66.1707 207.124 66.3496 206.926 66.401C205.43 66.7835 203.815 67.0117 202.593 67.0117C199.824 67.0117 198.202 65.8466 197.768 63.2009C197.688 62.7192 197.649 62.1883 197.649 61.6064C197.649 60.2595 197.854 59.1425 198.263 58.258C199.031 56.588 200.522 55.746 202.718 55.746C204.543 55.746 206.087 56.1272 206.926 56.3455L207.05 56.3777C207.175 56.4099 207.262 56.5226 207.262 56.6514V65.9663ZM203.109 51.9541C195.707 51.9541 191.833 55.3777 191.833 61.6064C191.833 62.1883 191.871 62.747 191.945 63.2792C192.595 68.0316 195.881 70.8113 201.003 70.8113C203.447 70.8113 205.181 70.5084 206.698 70.027C206.842 69.9819 207.262 69.8118 207.262 69.8118V71.1109V71.5574C207.262 72.5318 207.139 72.9836 206.636 73.8376C204.926 76.7388 200.241 76.3556 197.905 74.7525C197.691 74.6056 197.484 74.4467 197.287 74.2768C196.867 73.9155 196.468 73.4949 195.943 73.319C194.84 72.9491 193.183 73.74 193.183 75.0206C193.183 77.4325 197.03 79.8065 202.75 79.8705H202.805C207.989 79.7919 213.083 76.6352 213.083 70.1027V57.0545C213.083 55.0547 211.737 53.2874 209.796 52.806C207.711 52.2885 205.237 51.9541 203.109 51.9541ZM150.648 69.3317C149.551 69.3317 147.883 69.0175 146.293 68.5169L146.175 68.4787C146.058 68.4409 145.979 68.3321 145.979 68.2097V57.8534C145.979 57.7558 146.03 57.6649 146.113 57.6135L146.191 57.564C147.515 56.7333 149.426 55.7457 151.041 55.7457C154.465 55.7457 155.984 57.8377 155.984 62.5228C155.984 67.2937 154.387 69.3317 150.648 69.3317ZM152.631 51.9538C150.227 51.9538 148.087 52.6432 146.097 54.0541L145.384 54.5634V53.5581C145.384 52.8883 144.841 52.3449 144.171 52.3449H141.371C140.701 52.3449 140.158 52.8883 140.158 53.5581V78.8441C140.158 79.5142 140.701 80.0573 141.371 80.0573H142.638C144.483 80.0573 145.979 78.5615 145.979 76.7159V71.9718L146.567 72.1519C148.008 72.6147 149.639 73.1309 152.036 73.1309C158.373 73.1309 162.009 69.2604 162.009 62.5228C162.009 56.0048 158.42 51.9538 152.631 51.9538ZM120.999 72.7302C120.329 72.7302 119.786 72.1868 119.786 71.5167V53.094C119.786 52.6826 120.12 52.3492 120.531 52.3492H134.633C135.273 52.3492 135.792 52.8681 135.792 53.508V54.986C135.792 55.6259 135.273 56.1448 134.633 56.1448H125.893C125.737 56.1448 125.61 56.2718 125.61 56.4278V69.3894C125.61 71.2346 124.115 72.7302 122.27 72.7302H120.999ZM110.495 72.7302C109.489 72.7302 108.517 72.1264 107.894 71.1142L105.511 67.2327C104.392 65.4093 102.406 64.2983 100.266 64.2983C100.11 64.2983 99.9834 64.425 99.9834 64.5813V71.5176C99.9834 72.1874 99.4407 72.7302 98.7712 72.7302H95.3717C94.7022 72.7302 94.1591 72.1874 94.1591 71.5176V53.5624C94.1591 52.8926 94.7026 52.3492 95.3727 52.3492H98.7712C99.4407 52.3492 99.9834 52.892 99.9834 53.5618V60.4981C99.9834 60.6543 100.11 60.7811 100.266 60.7811H100.432C104.833 60.7811 107.321 53.921 107.321 53.921C107.758 52.9802 108.713 52.3492 109.699 52.3492H113.146C113.421 52.3492 113.684 52.2984 113.888 52.7022C114.184 53.287 112.543 58.3244 108.353 61.7505C107.893 62.1267 107.909 62.739 108.373 63.11C112.757 66.6136 114.678 71.1092 114.678 71.9721C114.678 72.7302 113.975 72.7302 113.819 72.7302H110.495ZM47.4093 73.1247C43.5855 73.1247 39.0282 71.5807 39.0282 64.2267V55.6873C39.0282 53.8418 40.5244 52.3459 42.37 52.3459H43.6393C44.3094 52.3459 44.8525 52.889 44.8525 53.5591V64.2267C44.8525 68.6656 47.4505 69.3291 48.9998 69.3291C50.7318 69.3291 52.5923 68.3484 54.5278 66.4136L54.5765 66.3651C54.6293 66.3121 54.6592 66.2401 54.6592 66.1648V55.6873C54.6592 53.8418 56.1554 52.3459 58.0006 52.3459H59.2702C59.94 52.3459 60.4834 52.889 60.4834 53.5591V71.5143C60.4834 72.1842 59.9407 72.7269 59.2709 72.7269H55.8717C55.2019 72.7269 54.6592 72.1842 54.6592 71.5143V69.7799L53.9203 70.4076C51.9972 72.0382 50.1536 73.1247 47.4093 73.1247ZM33.1794 48.9653V71.4211C33.1794 72.1496 32.6197 72.7272 31.9088 72.7272H28.64C27.9294 72.7272 27.37 72.1496 27.37 71.4211V55.823C27.37 55.3167 26.8316 55.064 26.5347 55.6721C20.1657 68.721 21.8543 65.5072 20.1657 68.7209C19.7984 69.4203 19.0642 70.0622 18.345 70.0622H15.751C15.0314 70.0622 14.2976 69.4203 13.93 68.7209C12.2414 65.5076 13.93 68.721 7.561 55.6721C7.26441 55.064 6.72598 55.3167 6.72598 55.823V71.4211C6.72598 72.1496 6.16631 72.7272 5.45569 72.7272H2.18692C1.47597 72.7272 0.916626 72.1496 0.916626 71.4211V48.9653C0.916626 48.2368 1.46767 47.6509 2.15142 47.6509H9.30072C10.0472 47.6509 10.8288 48.2636 11.0862 49.0632L17.0478 62.2498L22.9882 49.0632C23.2457 48.2636 24.0273 47.6509 24.7734 47.6509H31.9446C32.6283 47.6509 33.1794 48.2368 33.1794 48.9653Z" fill="white"/>
</svg>
