<svg width="265" height="37" viewBox="0 0 265 37" fill="none" xmlns="http://www.w3.org/2000/svg">
<path d="M39.185 17.1449V29.7729C39.185 30.8963 38.7637 31.9168 38.0711 32.6469C37.3784 33.3863 36.433 33.845 35.3751 33.845H31.949C29.8429 33.845 28.139 32.0196 28.139 29.7729V21.2637C23.6367 27.0769 24.975 25.5136 22.8128 28.0411C22.3351 28.6029 21.3149 29.1737 20.3321 29.1737H18.6753C17.7016 29.1737 16.6814 28.6029 16.2037 28.0411C14.0602 25.5323 15.3427 27.0303 11.046 21.4884V29.7729C11.046 30.8963 10.6247 31.9168 9.93205 32.6469C9.23936 33.3863 8.28461 33.845 7.23606 33.845H3.80998C1.70386 33.845 0 32.0196 0 29.7729V17.1449C0 14.5988 0.318475 12.062 0.954753 9.60005L2.54643 3.42189H1.7319C0.983128 3.42189 0.374563 2.81339 0.374563 2.07395V1.51208C0.374563 0.763322 0.983128 0.154785 1.7319 0.154785H9.31447C10.0632 0.154785 10.6715 0.763322 10.6715 1.51208V2.07395C10.6715 2.81339 10.0632 3.42189 9.31447 3.42189H8.49992L19.5086 18.8691L30.6948 3.42189H29.8709C29.1218 3.42189 28.5229 2.81339 28.5229 2.07395V1.51208C28.5229 0.763322 29.1218 0.154785 29.8709 0.154785H37.4535C38.2019 0.154785 38.8105 0.763322 38.8105 1.51208V2.07395C38.8105 2.81339 38.2019 3.42189 37.4535 3.42189H36.6389L38.2303 9.60005C38.8669 12.062 39.185 14.5988 39.185 17.1449Z" fill="white"/>
<path d="M134.819 29.4819C134.149 29.4819 133.605 28.9385 133.605 28.2684V13.1795C133.605 13.0235 133.479 12.8965 133.322 12.8965H129.498C127.403 12.8965 126.178 13.9153 125.642 16.1019L122.58 28.3901C122.433 29.0045 121.839 29.4819 121.225 29.4819H117.248C117.062 29.4819 116.898 29.4073 116.791 29.2716C116.681 29.1326 116.645 28.9514 116.69 28.7603L120.189 14.6465C121.135 10.8635 124.092 9.10087 129.498 9.10087H138.217C138.886 9.10087 139.429 9.64401 139.429 10.3141V28.269C139.429 28.9388 138.887 29.4819 138.217 29.4819H134.819ZM232.977 24.1675C232.977 24.3201 232.897 24.4614 232.766 24.5401C231.45 25.3705 229.335 26.3654 226.765 26.3654C225.266 26.3654 224.133 25.8363 223.568 24.9402C223.308 24.5285 223.169 24.0398 223.169 23.4898C223.169 21.8449 224.571 20.6927 226.561 20.6927H232.694C232.85 20.6927 232.977 20.8195 232.977 20.9757V24.1675ZM228.651 8.70845C228.608 8.70596 228.564 8.70547 228.52 8.70547H228.465C226.837 8.72438 225.361 8.92936 224.082 9.26974C224.058 9.27571 224.034 9.28148 224.011 9.28869C220.937 10.1224 219.021 11.7384 218.904 13.3948C218.899 13.4489 218.898 13.5013 218.898 13.5551C218.898 14.835 220.555 15.6262 221.658 15.2569C221.832 15.1985 221.994 15.1129 222.145 15.0111C222.45 14.8091 222.721 14.5397 223.002 14.2982C223.199 14.1296 223.406 13.9711 223.62 13.8228C224.059 13.5215 224.583 13.2625 225.153 13.0604C227.614 12.1919 230.963 12.3826 232.35 14.7377C232.853 15.593 232.977 16.0439 232.977 17.0186V17.1755H226.082C221.86 17.1755 217.348 18.8353 217.348 23.4898C217.348 24.0179 217.404 24.5079 217.512 24.9621C218.18 27.8055 220.811 29.2311 223.739 29.7009C224.51 29.8246 225.301 29.8826 226.082 29.8826C228.692 29.8826 230.846 29.2092 232.868 27.775L232.977 27.6981L233.574 27.2731V28.6711C233.574 29.3402 234.116 29.8826 234.785 29.8826H235.593C237.363 29.8826 238.798 28.4475 238.798 26.6772V18.4729C238.798 11.9958 233.79 8.83783 228.651 8.70845ZM258.791 22.7181C258.791 22.9224 258.653 23.1013 258.455 23.1527C256.958 23.5352 255.344 23.7634 254.122 23.7634C251.352 23.7634 249.73 22.5984 249.297 19.9526C249.217 19.4709 249.178 18.94 249.178 18.3581C249.178 17.0112 249.383 15.8942 249.791 15.0098C250.559 13.3397 252.05 12.4977 254.247 12.4977C256.072 12.4977 257.616 12.8789 258.455 13.0972L258.579 13.1294C258.704 13.1616 258.791 13.2743 258.791 13.4031V22.7181ZM254.638 8.70577C247.236 8.70577 243.362 12.1295 243.362 18.3581C243.362 18.94 243.4 19.4988 243.474 20.0309C244.124 24.7833 247.41 27.563 252.532 27.563C254.976 27.563 256.71 27.2601 258.227 26.7787C258.371 26.7336 258.791 26.5635 258.791 26.5635V27.8626V28.3091C258.791 29.2835 258.668 29.7353 258.165 30.5893C256.454 33.4905 251.77 33.1073 249.434 31.5042C249.219 31.3573 249.013 31.1984 248.815 31.0285C248.395 30.6673 247.997 30.2466 247.472 30.0708C246.369 29.7008 244.712 30.4918 244.712 31.7723C244.712 34.1842 248.559 36.5582 254.279 36.6222H254.334C259.518 36.5436 264.612 33.387 264.612 26.8544V13.8062C264.612 11.8064 263.266 10.0391 261.325 9.55774C259.239 9.0402 256.766 8.70577 254.638 8.70577ZM202.177 26.0834C201.08 26.0834 199.412 25.7692 197.822 25.2686L197.704 25.2305C197.587 25.1926 197.508 25.0838 197.508 24.9614V14.6051C197.508 14.5075 197.558 14.4166 197.641 14.3652L197.72 14.3157C199.044 13.485 200.955 12.4974 202.57 12.4974C205.994 12.4974 207.513 14.5894 207.513 19.2745C207.513 24.0454 205.916 26.0834 202.177 26.0834ZM204.16 8.70547C201.755 8.70547 199.616 9.39487 197.626 10.8058L196.913 11.3151V10.3098C196.913 9.64002 196.37 9.09661 195.7 9.09661H192.9C192.23 9.09661 191.687 9.64002 191.687 10.3098V35.5958C191.687 36.2659 192.23 36.809 192.9 36.809H194.167C196.012 36.809 197.508 35.3132 197.508 33.4676V28.7235L198.096 28.9036C199.537 29.3664 201.168 29.8826 203.565 29.8826C209.902 29.8826 213.537 26.0121 213.537 19.2745C213.537 12.7565 209.949 8.70547 204.16 8.70547ZM172.528 29.4819C171.858 29.4819 171.315 28.9385 171.315 28.2684V9.84567C171.315 9.43431 171.648 9.10087 172.06 9.10087H186.162C186.802 9.10087 187.321 9.61976 187.321 10.2597V11.7377C187.321 12.3776 186.802 12.8965 186.162 12.8965H177.422C177.266 12.8965 177.139 13.0235 177.139 13.1795V26.1411C177.139 27.9863 175.643 29.4819 173.798 29.4819H172.528ZM162.024 29.4819C161.018 29.4819 160.046 28.8781 159.423 27.8659L157.04 23.9844C155.921 22.161 153.935 21.05 151.795 21.05C151.639 21.05 151.512 21.1767 151.512 21.333V28.2693C151.512 28.9391 150.969 29.4819 150.3 29.4819H146.901C146.231 29.4819 145.688 28.9391 145.688 28.2693V10.3141C145.688 9.64434 146.231 9.10087 146.902 9.10087H150.3C150.969 9.10087 151.512 9.64367 151.512 10.3135V17.2498C151.512 17.406 151.639 17.5328 151.795 17.5328H151.961C156.361 17.5328 158.85 10.6727 158.85 10.6727C159.287 9.73188 160.242 9.10087 161.228 9.10087H164.675C164.95 9.10087 165.213 9.05011 165.417 9.45386C165.713 10.0387 164.072 15.0761 159.882 18.5022C159.422 18.8784 159.438 19.4907 159.902 19.8617C164.286 23.3653 166.207 27.8609 166.207 28.7238C166.207 29.4819 165.504 29.4819 165.348 29.4819H162.024ZM98.9381 29.8764C95.1143 29.8764 90.557 28.3324 90.557 20.9784V12.439C90.557 10.5935 92.0532 9.09759 93.8988 9.09759H95.1681C95.8382 9.09759 96.3813 9.64067 96.3813 10.3108V20.9784C96.3813 25.4173 98.9793 26.0808 100.529 26.0808C102.261 26.0808 104.121 25.1001 106.057 23.1653L106.105 23.1169C106.158 23.0638 106.188 22.9918 106.188 22.9165V12.439C106.188 10.5935 107.684 9.09759 109.529 9.09759H110.799C111.469 9.09759 112.012 9.64067 112.012 10.3108V28.2661C112.012 28.9359 111.469 29.4786 110.8 29.4786H107.401C106.731 29.4786 106.188 28.9359 106.188 28.2661V26.5316L105.449 27.1593C103.526 28.7899 101.682 29.8764 98.9381 29.8764ZM84.7082 5.71701V28.1728C84.7082 28.9013 84.1485 29.4789 83.4376 29.4789H80.1688C79.4582 29.4789 78.8989 28.9013 78.8989 28.1728V12.5747C78.8989 12.0684 78.3604 11.8157 78.0635 12.4238C71.6945 25.4727 73.3831 22.2589 71.6945 25.4726C71.3272 26.172 70.5931 26.8139 69.8738 26.8139H67.2798C66.5602 26.8139 65.8264 26.172 65.4588 25.4726C63.7702 22.2593 65.4588 25.4727 59.0898 12.4238C58.7932 11.8157 58.2548 12.0684 58.2548 12.5747V28.1728C58.2548 28.9013 57.6951 29.4789 56.9845 29.4789H53.7157C53.0048 29.4789 52.4454 28.9013 52.4454 28.1728V5.71701C52.4454 4.98848 52.9965 4.40259 53.6802 4.40259H60.8295C61.576 4.40259 62.3576 5.01535 62.615 5.81487L68.5766 19.0015L74.517 5.81487C74.7745 5.01535 75.5561 4.40259 76.3022 4.40259H83.4734C84.1572 4.40259 84.7082 4.98848 84.7082 5.71701Z" fill="white"/>
</svg>
