<svg width="68" height="68" viewBox="0 0 68 68" fill="none" xmlns="http://www.w3.org/2000/svg">
<path d="M44.3215 28.0387C44.2921 28.4721 44.0615 28.8201 43.7908 29.1467C40.8787 32.7335 37.9667 36.3109 35.0453 39.8883C34.1013 41.0457 33.4559 41.0937 32.3372 40.1483C30.3785 38.5189 28.4211 36.8896 26.4744 35.2495C25.6171 34.5268 25.4811 33.7455 26.0504 33.0802C26.5798 32.4641 27.4011 32.4735 28.1998 33.1108C28.4891 33.3415 28.7585 33.5722 29.0385 33.7935C30.3012 34.8549 31.5839 35.8869 32.8279 36.9762C33.2999 37.3909 33.5706 37.3522 33.9653 36.8602C36.4626 33.7562 38.9894 30.6708 41.5054 27.5854C41.6974 27.3534 41.8921 27.1134 42.1228 26.9294C42.5561 26.5827 43.0681 26.564 43.5601 26.7947C44.0508 27.0454 44.3015 27.4694 44.3215 28.0387ZM34.0013 55.8446C22.093 55.7286 12.4421 45.9231 12.5381 34.0255C12.6261 22.1279 22.4397 12.4477 34.3279 12.5344C46.2455 12.6304 55.9257 22.4266 55.8391 34.3055C55.7511 46.2604 45.9188 55.9593 34.0013 55.8446ZM34.5879 9.80634C20.541 9.79567 9.80076 20.5172 9.80076 34.5549C9.80076 47.7165 20.869 58.6007 34.2319 58.5727C47.7309 58.5527 58.5778 47.6778 58.5671 34.1895C58.5671 20.8546 47.7002 9.80634 34.5879 9.80634ZM62.5086 48.3151C61.0139 49.2592 59.5192 50.1938 58.0058 51.1112C55.2378 52.7979 53.031 55.0353 51.391 57.822C50.5243 59.2954 49.6363 60.7527 48.7496 62.2181C47.6416 64.0408 46.0789 64.6955 44.0162 64.2235C41.7975 63.7128 39.5908 63.1234 37.3534 62.7194C34.1706 62.1408 31.0372 62.6034 27.9425 63.4901C26.7372 63.8381 25.5131 64.1181 24.2891 64.3968C22.5344 64.8115 20.905 64.1461 19.9397 62.6221C18.957 61.0794 17.993 59.5274 17.0383 57.966C15.3796 55.2179 13.1622 53.0392 10.3955 51.4085C8.85278 50.4938 7.31008 49.5592 5.77671 48.6231C4.18601 47.6391 3.51133 45.9711 3.92467 44.139C4.47535 41.691 5.17003 39.2709 5.56471 36.7842C5.69004 35.9735 5.67138 35.1642 5.69004 34.0455C5.81538 31.1428 4.67802 28.1734 3.97401 25.1173C3.31799 22.3013 3.77134 21.0479 6.20205 19.5345C7.59808 18.6572 9.00745 17.7892 10.4048 16.9211C12.9982 15.3118 15.0716 13.1904 16.6516 10.5877C17.6063 9.02497 18.5423 7.45294 19.4863 5.8929C20.5477 4.1462 22.1677 3.48085 24.1731 3.95287C26.3625 4.46488 28.5319 5.06355 30.7386 5.44889C33.6693 5.96891 36.5827 5.69823 39.4548 4.88889C40.8921 4.48354 42.3575 4.1462 43.8135 3.79953C45.6736 3.35552 47.2736 4.01153 48.2963 5.6209C48.9523 6.66359 49.647 7.68494 50.235 8.76497C52.3364 12.641 55.3538 15.5811 59.2392 17.6545C60.2419 18.1945 61.1979 18.8212 62.1806 19.4092C64.0406 20.5279 64.706 22.0892 64.2139 24.2106C63.7033 26.3987 63.1259 28.5681 62.7192 30.7774C62.1499 33.9682 62.5939 37.1016 63.4806 40.187C63.8179 41.3723 64.0793 42.567 64.3699 43.7644C64.822 45.6817 64.1859 47.2538 62.5086 48.3151ZM67.194 44.0337C67.0393 42.799 66.6927 41.575 66.374 40.3603C65.6126 37.4576 64.8313 34.5468 65.41 31.5094C65.8433 29.2147 66.4233 26.9493 66.9527 24.6826C67.6473 21.6759 66.4513 18.7732 63.8286 17.1811C62.8352 16.5745 61.8526 15.9291 60.8205 15.3891C57.2045 13.4997 54.4284 10.789 52.5004 7.1836C51.9403 6.13291 51.2563 5.13956 50.6203 4.1182C49.0296 1.56348 46.0976 0.386124 43.1562 1.11948C41.9721 1.40748 40.7574 1.64881 39.5908 2.00616C35.8493 3.16351 32.1173 3.23952 28.3585 2.10216C27.1238 1.73549 25.8505 1.49548 24.5971 1.21547C21.5797 0.540794 18.745 1.76482 17.145 4.43554C16.5556 5.4089 15.9383 6.36358 15.3889 7.35693C13.6835 10.453 11.5515 13.1424 8.41943 14.9264C6.9634 15.7544 5.56471 16.6905 4.12868 17.5585C3.02999 18.2318 2.20864 19.1585 1.62196 20.3052C0.608604 22.2626 0.879277 24.2306 1.39929 26.2547C2.08464 28.9454 3.00999 31.5961 2.98065 34.4308C2.94199 34.9709 2.92332 35.5095 2.85532 36.0415C2.54598 38.5483 1.82329 40.967 1.25528 43.4164C0.5326 46.5684 1.73663 49.4525 4.51402 51.0912C5.82471 51.8725 7.10741 52.7019 8.4381 53.4446C11.3502 55.0726 13.5675 57.3487 15.2062 60.2327C15.9289 61.5047 16.7489 62.7288 17.521 63.9821C19.1303 66.6048 22.0331 67.7995 25.0318 67.0675C26.7372 66.6435 28.4532 66.2288 30.1706 65.7942C32.2239 65.2648 34.2973 65.0715 36.408 65.3702C38.8094 65.7182 41.1335 66.4208 43.5042 66.9529C46.5602 67.6355 49.443 66.4315 51.043 63.7501C51.6603 62.7194 52.3364 61.7261 52.8857 60.6661C54.7657 57.0687 57.5138 54.3699 61.0712 52.4512C62.1219 51.8819 63.1353 51.2352 64.1273 50.5698C66.4513 49.0098 67.55 46.8298 67.194 44.0337Z" fill="white"/>
</svg>
