<svg width="66" height="74" viewBox="0 0 66 74" fill="none" xmlns="http://www.w3.org/2000/svg">
<path d="M42.8654 59.072C38.68 59.0626 35.2774 55.6 35.3054 51.4066C35.336 47.184 38.8054 43.7626 43.028 43.8C47.2227 43.8386 50.5774 47.2706 50.5587 51.4933C50.5494 55.756 47.1654 59.092 42.8654 59.072ZM42.8654 41.072C37.1467 41.092 32.5387 45.7386 32.5494 51.456C32.5587 57.2306 37.2054 61.8493 42.9707 61.8386C48.736 61.82 53.384 57.1546 53.3547 51.3973C53.3254 45.6426 48.66 41.052 42.8654 41.072ZM29.2507 15.552C29.068 16.2373 28.5854 16.612 27.8627 16.612C22.3867 16.6226 16.9 16.6226 11.4147 16.612C10.528 16.612 9.98802 16.0146 10.0067 15.204C10.016 14.4133 10.528 13.904 11.4147 13.8933C14.1707 13.8733 16.9294 13.884 19.6867 13.884C22.3774 13.884 25.076 13.8733 27.776 13.8933C28.8267 13.904 29.5014 14.6746 29.2507 15.552ZM31.6414 25.8C30.5334 25.8573 29.424 25.82 28.316 25.82H12.2334C11.964 25.82 11.6934 25.828 11.424 25.8093C10.508 25.752 9.98802 25.2306 10.0067 24.412C10.0254 23.64 10.5467 23.1386 11.4147 23.1013C12.012 23.0706 12.6107 23.0906 13.208 23.0906H21.5667C24.8254 23.0906 28.0947 23.1013 31.352 23.0906C31.9694 23.0813 32.4907 23.2453 32.7987 23.7946C33.3094 24.6906 32.712 25.7413 31.6414 25.8ZM11.4147 16.612C16.9 16.6226 22.3867 16.6226 27.8627 16.612C28.5854 16.612 29.068 16.2373 29.2507 15.552C29.5014 14.6746 28.8267 13.904 27.776 13.8933C25.076 13.8733 22.3774 13.884 19.6867 13.884C16.9294 13.884 14.1707 13.8733 11.4147 13.8933C10.528 13.904 10.016 14.4133 10.0067 15.204C9.98802 16.0146 10.528 16.612 11.4147 16.612ZM31.6414 25.8C32.712 25.7413 33.3094 24.6906 32.7987 23.7946C32.4907 23.2453 31.9694 23.0826 31.352 23.0906C28.0947 23.1013 24.8254 23.0906 21.5667 23.0906H13.208C12.6094 23.0906 12.012 23.072 11.4147 23.1013C10.5467 23.1386 10.0254 23.64 10.0067 24.412C9.98802 25.2306 10.508 25.752 11.424 25.8093C11.6934 25.828 11.964 25.82 12.2334 25.82H28.316C29.424 25.82 30.5334 25.8573 31.6414 25.8ZM61.6747 49.5466C58.8014 51.736 58.3387 55.544 60.5654 58.388C60.952 58.8893 60.952 59.256 60.6627 59.748C60.3534 60.2586 60.276 60.876 59.3894 60.9053C55.62 61.0106 53.0747 63.652 53.112 67.4213C53.1227 68.4066 52.3894 68.464 51.88 68.8493C51.396 69.2253 51.0507 69.0133 50.616 68.7146C47.6747 66.66 43.8867 67.336 41.824 70.2866C41.524 70.7 41.2827 71.0666 40.676 70.8733C40.0494 70.6813 39.3067 70.9133 38.9787 69.9293C38.092 67.2293 35.7974 65.6573 33.068 65.668C32.308 65.668 31.5547 65.736 30.8814 66.0733C30.224 66.4013 29.82 66.1306 29.3867 65.688C28.952 65.244 28.6334 64.9066 28.8654 64.1533C29.964 60.616 28.1707 57.3 24.584 56.1813C23.9667 55.9973 23.784 55.632 23.736 55.0906C23.688 54.5026 23.38 53.9733 24.112 53.4426C26.9947 51.3213 27.5627 47.552 25.4334 44.688C24.912 43.984 25.076 43.492 25.3854 42.8373C25.6654 42.2093 26.0307 41.9786 26.744 41.9693C30.176 41.92 32.8187 39.1933 32.7414 35.6733C32.712 34.6413 33.3774 34.4866 33.9654 34.0733C34.5627 33.648 34.94 33.976 35.392 34.2853C38.2667 36.2226 42.104 35.5293 44.0307 32.6266C44.5427 31.856 45.092 32.0773 45.7187 32.096C46.364 32.116 46.7027 32.4146 46.924 33.0506C48.1387 36.4546 51.5907 38.084 54.9934 36.8306C55.7174 36.56 56.0827 36.82 56.536 37.2546C56.9987 37.6973 57.2494 38.0653 57.0174 38.7973C55.9294 42.2493 57.712 45.6133 61.1827 46.664C61.896 46.8866 62.0894 47.3013 62.1854 47.9266C62.2734 48.5546 62.3307 49.0453 61.6747 49.5466ZM26.2627 63.228C26.0987 63.7973 25.7707 64.3573 25.8947 64.9733C26.0787 65.852 25.6347 65.9173 24.9227 65.9173C18.2027 65.9 11.492 65.9093 4.77202 65.9093C3.25736 65.9093 3.04669 65.7053 3.04669 64.212V4.94664C3.04669 3.47197 3.22802 3.28797 4.70402 3.28797C14.992 3.28797 25.2694 3.29864 35.556 3.26797C36.4827 3.26797 36.7134 3.54797 36.704 4.43464C36.6467 7.67464 36.664 10.9146 36.684 14.1533C36.6934 17.1813 38.7854 19.3306 41.804 19.3613C45.4 19.3986 49.0054 19.3986 52.6027 19.3613C53.4414 19.3506 53.7494 19.5826 53.7494 20.4693C53.712 24.7586 53.7294 29.04 53.7294 33.3306C53.7294 34.4293 53.624 34.5173 52.5454 34.4586C51.108 34.3906 49.8547 33.4466 49.4694 31.98C49.0454 30.312 48.0227 29.5026 46.3547 29.3973C45.8147 29.3586 45.284 29.2426 44.744 29.204C43.5494 29.1173 42.6707 29.6386 42.0454 30.64C40.6654 32.8586 38.564 33.2346 36.492 31.6426C35.4974 30.892 34.4187 30.7373 33.2907 31.3146C32.9147 31.4986 32.5574 31.74 32.172 31.904C30.5334 32.5973 29.8587 33.784 29.9934 35.596C30.148 37.6973 28.528 39.308 26.4267 39.232C24.72 39.1733 23.62 39.848 23.0027 41.4186C22.82 41.892 22.5694 42.336 22.3574 42.7986C21.876 43.868 22.068 44.8613 22.7627 45.7493C24.5547 48.024 24.324 49.8746 22.02 51.5333C21.0747 52.2173 20.6214 53.1533 20.8147 54.3493C20.8734 54.7346 20.9787 55.1106 21.0067 55.496C21.1427 57.376 22.068 58.4666 23.9667 58.9186C25.8774 59.3626 26.832 61.3493 26.2627 63.228ZM40.3094 4.17464C40.8694 4.48264 41.38 4.83064 41.8427 5.26398C45.092 8.33064 48.34 11.3866 51.5907 14.4426C52.0534 14.8773 52.448 15.3493 52.7574 15.9093C53.0747 16.468 52.9307 16.632 52.3227 16.6226C50.5494 16.6026 48.784 16.6226 47.02 16.6226C45.3414 16.6226 43.664 16.632 41.988 16.6226C40.396 16.612 39.4507 15.716 39.432 14.1253C39.4134 10.9813 39.4427 7.83864 39.4134 4.69464C39.4027 3.89597 39.692 3.83731 40.3094 4.17464ZM63.7574 51.4373C64.8667 50.6853 65.2907 49.6533 65.0587 48.332C64.952 47.7453 64.836 47.156 64.7307 46.568C64.5094 45.2666 63.728 44.476 62.4854 44.168C59.94 43.5306 58.9174 41.68 59.7854 39.2013C60.1227 38.2386 60.132 37.2733 59.5347 36.4546C58.8787 35.5573 58.0987 34.7293 57.124 34.1973C56.564 33.8893 56.4587 33.5426 56.4587 32.9933C56.4787 28.548 56.448 24.1133 56.4787 19.6786C56.4987 16.7186 55.4467 14.26 53.2867 12.2453C50.1534 9.31331 47.04 6.37331 43.9254 3.43198C41.8614 1.48531 39.4227 0.501305 36.5987 0.501305C25.9627 0.491974 15.32 0.53997 4.67469 0.473305C2.07202 0.463974 0.249357 1.97598 0.277357 4.9173C0.365357 14.8093 0.308024 24.7013 0.308024 34.5933V64.0853C0.308024 64.6853 0.297358 65.3013 0.424024 65.88C0.828024 67.616 2.25469 68.6373 4.24136 68.6373C11.916 68.656 19.5907 68.6466 27.2654 68.6466C27.9494 68.6466 28.624 68.6666 29.2894 68.936C29.9747 69.216 30.7254 69.196 31.3827 68.84C33.552 67.6826 36.096 69.032 36.5587 71.308C36.8 72.5226 37.7067 73.236 38.96 73.4293C39.6067 73.5346 40.2614 73.592 40.9174 73.68C42.2187 73.844 43.1827 73.3226 43.8667 72.224C45.236 70.064 47.348 69.6786 49.3734 71.2413C50.048 71.7613 50.7894 72.0026 51.628 71.9066C54.1454 71.616 55.8707 69.6893 55.8894 67.172C55.8987 65.252 57.2694 63.652 59.1587 63.72C61.1827 63.788 62.3974 62.9586 63.0534 61.1173C63.168 60.808 63.3427 60.5293 63.488 60.2306C64.028 59.0733 63.8334 58.0133 63.0347 57.048C61.356 55.0626 61.6267 52.9026 63.7574 51.4373ZM11.4147 16.612C16.9 16.6226 22.3867 16.6226 27.8627 16.612C28.5854 16.612 29.068 16.2373 29.2507 15.552C29.5014 14.6746 28.8267 13.904 27.776 13.8933C25.076 13.8733 22.3774 13.884 19.6867 13.884C16.9294 13.884 14.1707 13.8733 11.4147 13.8933C10.528 13.904 10.016 14.4133 10.0067 15.204C9.98802 16.0146 10.528 16.612 11.4147 16.612ZM32.7987 23.7946C32.4907 23.2453 31.9694 23.0826 31.352 23.0906C28.0947 23.1013 24.8254 23.0906 21.5667 23.0906H13.208C12.6094 23.0906 12.012 23.072 11.4147 23.1013C10.5467 23.1386 10.0254 23.64 10.0067 24.412C9.98802 25.2306 10.508 25.752 11.424 25.8093C11.6934 25.828 11.964 25.82 12.2334 25.82H28.316C29.424 25.82 30.5334 25.8573 31.6414 25.8C32.712 25.7413 33.3094 24.6906 32.7987 23.7946ZM32.7987 23.7946C32.4907 23.2453 31.9694 23.0826 31.352 23.0906C28.0947 23.1013 24.8254 23.0906 21.5667 23.0906H13.208C12.6094 23.0906 12.012 23.072 11.4147 23.1013C10.5467 23.1386 10.0254 23.64 10.0067 24.412C9.98802 25.2306 10.508 25.752 11.424 25.8093C11.6934 25.828 11.964 25.82 12.2334 25.82H28.316C29.424 25.82 30.5334 25.8573 31.6414 25.8C32.712 25.7413 33.3094 24.6906 32.7987 23.7946ZM27.776 13.8933C25.076 13.8733 22.3774 13.884 19.6867 13.884C16.9294 13.884 14.1707 13.8733 11.4147 13.8933C10.528 13.904 10.016 14.4133 10.0067 15.204C9.98802 16.0146 10.528 16.612 11.4147 16.612C16.9 16.6226 22.3867 16.6226 27.8627 16.612C28.5854 16.612 29.068 16.2373 29.2507 15.552C29.5014 14.6746 28.8267 13.904 27.776 13.8933Z" fill="white"/>
</svg>
