<svg width="72" height="64" viewBox="0 0 72 64" fill="none" xmlns="http://www.w3.org/2000/svg">
<path d="M45.1866 41.564C40.6946 42.3254 36.424 41.564 32.4506 39.2694C31.94 38.98 31.8533 38.7494 32.2106 38.248C36.7893 31.72 41.3493 25.1934 45.9306 18.656C46.0266 18.5214 46.152 18.396 46.4493 18.0587C46.7013 19.8814 46.9333 21.4814 47.1546 23.072C47.3373 24.4414 47.5106 25.8 47.7133 27.1694C47.848 28.1054 48.4653 28.6347 49.2746 28.5387C50.0946 28.4427 50.576 27.796 50.4413 26.832C49.9306 22.9467 49.4106 19.052 48.8306 15.176C48.6013 13.5854 47.4626 12.9 45.8813 13.296C42.1893 14.2214 38.5053 15.1667 34.824 16.12C33.6946 16.4094 33.232 17.0747 33.492 17.9627C33.7146 18.7627 34.436 19.0614 35.5466 18.7814C37.928 18.1747 40.3093 17.5574 42.6906 16.9694C42.9893 16.892 43.2973 16.6707 43.7133 16.9694C43.336 17.528 42.9506 18.088 42.564 18.6467C38.4186 24.5574 34.264 30.4667 30.1466 36.3974C29.684 37.0614 29.4133 37.148 28.8253 36.5414C23.3786 30.9587 21.5653 24.364 23.9946 16.9694C26.436 9.52538 31.8426 5.14805 39.596 4.08805C49.9306 2.66138 59.1586 9.89205 60.7586 20.3827C62.2626 30.216 55.2053 39.848 45.1866 41.564ZM71.364 49.268C71.276 48.824 70.948 48.544 70.6586 48.2454C66.9666 44.5627 63.2933 40.86 59.5813 37.1974C59.0506 36.676 58.9746 36.348 59.4466 35.7214C62.2333 31.9707 63.66 27.7294 63.6786 23.072C63.7373 11.772 55.4173 2.49738 44.184 1.27338C28.7866 -0.414619 16.5426 14.5014 21.18 29.272C22.3666 33.0507 24.4106 36.2814 27.3413 38.9414C27.804 39.3667 27.92 39.6654 27.4946 40.1947C26.9653 40.8414 26.484 41.536 26.0586 42.2494C25.6826 42.8747 25.3826 42.808 24.892 42.364C23.4853 41.1107 22.0386 39.896 20.6026 38.672C19.436 37.688 18.5773 37.8907 17.932 39.288C16.5613 42.2494 15.1733 45.208 13.8333 48.188C13.5053 48.9107 13.2653 48.9214 12.744 48.3707C11.7133 47.2814 10.6426 46.2307 9.57198 45.18C8.46264 44.0907 7.43198 44.3214 6.90131 45.768C6.32398 47.3494 5.78265 48.9307 5.22265 50.5107C4.79998 51.7454 4.35598 52.9707 3.88264 54.2907C3.59464 53.8094 3.71064 53.4134 3.71064 53.0374C3.70131 38.1707 3.70131 23.304 3.70131 8.42671C3.70131 6.23871 3.71065 4.04938 3.69065 1.86138C3.67065 0.897377 3.12131 0.318714 2.30265 0.318714C1.52131 0.318714 0.971981 0.934715 0.933314 1.89072C0.923981 2.13071 0.933314 2.37205 0.933314 2.61338C0.933314 22.3107 0.933314 42.008 0.923981 61.7054C0.923981 63.4694 1.31998 63.8654 3.10398 63.8654H62.368C62.696 63.8654 63.0333 63.8747 63.352 63.7974C64.0466 63.6427 64.46 63.2094 64.46 62.476C64.46 61.744 64.0546 61.3 63.3613 61.136C63.052 61.0587 62.7053 61.068 62.3786 61.068C59.716 61.068 57.0466 61.0494 54.376 61.0787C53.7013 61.088 53.3813 60.904 53.44 60.1627C53.4973 59.4494 53.4693 58.7267 53.44 58.0027C53.412 57.0867 52.9 56.5374 52.1 56.5174C51.2906 56.508 50.76 57.0187 50.7213 57.9454C50.6826 58.7547 50.692 59.564 50.7026 60.3747C50.7026 60.8667 50.4906 61.068 49.9973 61.068C45.8626 61.0587 41.716 61.0587 37.58 61.068C37.0893 61.068 36.8773 60.876 36.8853 60.3747C36.9053 59.564 36.9146 58.7547 36.8773 57.9454C36.8373 57.0387 36.2786 56.508 35.4693 56.5174C34.688 56.528 34.1866 57.0294 34.1386 57.9067C34.0906 58.62 34.08 59.3427 34.1093 60.0654C34.1386 60.7694 33.9173 61.088 33.1453 61.0787C29.1546 61.0494 25.172 61.0587 21.18 61.0787C20.5053 61.0787 20.2826 60.828 20.3133 60.1814C20.3413 59.4587 20.3306 58.7347 20.3026 58.0227C20.2546 57.0387 19.7146 56.4987 18.876 56.5174C18.0853 56.5374 17.5746 57.0774 17.536 58.012C17.4973 58.7934 17.5066 59.5747 17.516 60.3547C17.516 60.828 17.3426 61.068 16.8306 61.068C12.9373 61.0587 9.04264 61.0587 5.14664 61.0587C4.67331 61.0587 4.49198 60.9147 4.66398 60.4134C6.01464 56.6334 7.34398 52.844 8.66531 49.056C8.84931 48.544 9.05064 48.5547 9.39864 48.9107C10.4106 49.9427 11.4333 50.9547 12.4546 51.9667C13.7266 53.2307 14.624 53.0574 15.3773 51.408C16.7453 48.4387 18.1333 45.488 19.4733 42.5094C19.8013 41.7667 20.0706 41.8147 20.6026 42.2974C21.9226 43.4734 23.272 44.6107 24.6213 45.7587C25.644 46.6254 26.396 46.5294 27.1773 45.44C28.036 44.244 28.8933 43.0494 29.6933 41.824C30.06 41.256 30.3586 41.256 30.9186 41.584C39.1426 46.3854 49.256 45.4107 56.3413 39.1254C56.9013 38.624 57.1906 38.6627 57.7026 39.1734C61.308 42.8267 64.9413 46.4427 68.568 50.0587C68.8266 50.3094 69.0786 50.5694 69.3773 50.7614C69.86 51.0707 70.3706 51.012 70.8146 50.6854C71.276 50.328 71.4893 49.856 71.364 49.268Z" fill="white"/>
</svg>
