<svg width="84" height="68" viewBox="0 0 84 68" fill="none" xmlns="http://www.w3.org/2000/svg">
<path d="M28.8252 49.9974C23.0692 49.9773 18.4412 45.312 18.4692 39.5467C18.4987 33.9534 23.2426 29.316 28.8919 29.3454C34.6386 29.384 39.2866 33.9827 39.2959 39.6707C39.3038 45.3694 34.6092 50.0067 28.8252 49.9974ZM29.0359 26.608C21.6412 26.5785 15.7506 32.3627 15.7319 39.6707C15.7119 46.864 21.5359 52.696 28.7666 52.7254C36.0079 52.7548 41.9946 47.008 42.0332 39.9894C42.0719 32.576 36.3052 26.636 29.0359 26.608ZM79.6357 20.176C76.6743 21.516 75.277 23.792 75.4797 27.0507C75.5277 27.8414 74.9583 28.5547 74.265 28.584C74.1197 28.536 73.9277 28.468 73.7343 28.3907C70.6303 27.224 67.9783 27.86 65.7717 30.3574C65.057 31.168 64.0743 31.004 63.6103 30.0014C62.2903 27.0894 60.053 25.672 56.833 25.8547C55.4357 25.932 54.905 25.2094 55.3863 23.9174C56.497 20.9187 55.7917 18.4014 53.4397 16.2907C52.4957 15.452 52.629 14.5654 53.7957 14.0254C56.669 12.704 58.077 10.496 57.893 7.30537C57.817 5.9547 58.5503 5.4347 59.8503 5.9067C62.7917 6.97737 65.3183 6.36004 67.4397 4.05604C68.413 2.99471 69.2317 3.1307 69.8583 4.44137C71.2183 7.27604 73.4837 8.56803 76.5984 8.41336C77.9383 8.34537 78.449 9.0307 78.005 10.284C76.9157 13.4267 77.4957 15.712 79.9823 17.9787C80.8503 18.768 80.7157 19.6947 79.6357 20.176ZM82.5277 16.4454C80.041 14.632 79.6637 13.0987 81.013 10.3427C81.3997 9.55203 81.3703 8.84671 80.821 8.16271C80.5424 7.81605 80.233 7.4787 80.021 7.0827C79.2877 5.6947 78.2277 5.32803 76.665 5.5987C74.5357 5.96535 73.1944 5.09736 72.3077 3.1107C72.1717 2.81204 72.0384 2.50404 71.9504 2.19471C71.7197 1.40404 71.209 1.00003 70.4077 0.893361C69.6944 0.797361 68.9824 0.701373 68.277 0.565386C67.2557 0.372063 66.5224 0.662706 65.8957 1.54938C64.305 3.79605 62.5317 4.20006 60.0344 3.00539C59.6584 2.8214 59.2917 2.60938 58.8677 2.64806C58.473 2.62954 58.145 2.75472 57.845 2.97605C57.2957 3.39072 56.7664 3.83472 56.177 4.19072C55.1264 4.80805 54.8464 5.64672 55.0584 6.84272C55.5024 9.24272 54.6157 10.8534 52.321 11.624C50.961 12.0774 50.229 12.7907 50.2197 14.2281C50.2103 14.4587 50.181 14.7094 50.113 14.9307C49.6797 16.3587 50.113 17.3227 51.357 18.2094C53.2744 19.5881 53.5744 21.1694 52.629 23.348C52.533 23.5694 52.4277 23.7827 52.321 23.9947C51.9544 24.7081 52.0131 25.3721 52.5131 26.0094C52.9477 26.5494 53.3824 27.0894 53.7477 27.6681C54.3357 28.5934 55.089 28.8827 56.1877 28.6707C58.5584 28.2067 60.2184 28.8827 60.941 30.9934C61.597 32.9027 62.781 33.5494 64.585 33.5974C64.701 33.5974 64.8264 33.6068 64.941 33.6361C66.1277 33.992 66.8891 33.5094 67.593 32.5374C69.0397 30.5401 70.7464 29.9907 72.8291 31.052C74.2744 31.784 75.3637 31.6587 76.4624 30.5894C76.6077 30.4441 76.7904 30.3187 76.9744 30.2227C78.2464 29.5481 78.5544 28.5547 78.2944 27.1467C77.909 24.9774 78.8344 23.5121 80.8597 22.6534C81.217 22.5094 81.593 22.4027 81.9584 22.2587C82.537 22.0374 82.9037 21.6227 83.0197 21.0147C83.1637 20.1667 83.2704 19.2987 83.4051 18.4414C83.541 17.5827 83.2504 16.9654 82.5277 16.4454ZM52.5716 38.428C49.437 40.9827 49.361 45.032 52.0223 48.1854C52.5236 48.7734 52.5036 49.1787 52.2236 49.8334C51.569 51.4147 50.8756 52.3787 48.7636 52.4854C44.821 52.688 42.4583 55.744 42.5836 59.7934C42.6116 60.7667 42.265 61.2014 41.485 61.664C40.1143 62.484 39.0743 62.7054 37.5116 61.712C34.0596 59.4947 30.165 60.6027 27.8703 64.1507C27.465 64.788 27.0703 64.8654 26.357 64.8454C24.4863 64.788 23.4343 64.1507 22.6636 62.2227C21.237 58.6654 17.3316 57.3827 13.5823 58.8867C12.7716 59.224 12.2316 59.128 11.7023 58.5107C11.605 58.4041 11.489 58.2987 11.365 58.2121C10.2263 57.4014 9.91828 56.5347 10.3623 55.0401C11.5663 50.9814 9.32897 47.3561 5.13566 46.2947C4.40364 46.1027 4.16231 45.784 3.97964 45.0707C3.56495 43.4027 3.57428 42.2174 5.21297 40.8961C8.34627 38.3601 8.3663 34.2827 5.65562 31.0627C5.23295 30.5614 5.12631 30.1747 5.4916 29.6547C5.52184 29.6067 5.55018 29.5481 5.57021 29.4907C6.1289 27.7747 7.05422 26.9347 9.12756 26.8681C12.6276 26.7521 15.2396 23.7054 15.1729 20.1481C15.1434 18.6734 15.5876 17.8721 16.8982 17.3907C17.4289 17.1974 17.9102 16.8707 18.3822 16.6201C18.7676 16.6095 18.9422 16.8894 19.1742 17.0627C21.1409 18.4894 23.2902 19.1361 25.6916 18.4707C27.5809 17.9494 28.9502 16.7161 29.9729 15.0961C30.2809 14.5947 30.6076 14.3241 31.1969 14.5267C31.3129 14.5654 31.4369 14.5562 31.5529 14.5562C33.1822 14.6042 34.2529 15.0002 34.9662 16.8602C36.3742 20.5922 40.2302 21.9895 44.0676 20.4949C44.9742 20.1389 45.5822 20.2255 46.1689 20.9282C46.1889 20.9577 46.2089 20.9775 46.2369 20.9962C47.4142 21.8935 47.8769 22.7802 47.3662 24.4575C46.1689 28.4109 48.4835 31.9975 52.5915 33.0482C53.3622 33.2509 53.6022 33.5975 53.7862 34.3402C54.2009 35.9882 54.1529 37.136 52.5716 38.428ZM56.9582 36.5095C56.7569 35.2362 56.5142 33.9735 56.2556 32.7109C56.0329 31.5535 55.2329 30.9269 54.1622 30.5895C53.8542 30.4935 53.5169 30.4735 53.1982 30.3775C50.4409 29.6069 49.2262 27.3122 50.1329 24.5935C50.2102 24.3322 50.3249 24.0922 50.4222 23.8415C50.8649 22.6549 50.6529 21.5949 49.8049 20.6695C48.9556 19.7429 48.0489 18.8655 47.0662 18.0749C46.0835 17.2842 45.0129 17.1882 43.8555 17.6415C43.4702 17.7869 43.0849 17.9695 42.6889 18.0949C40.1822 18.8269 38.0516 17.7282 37.1942 15.2509C37.0876 14.9415 37.0302 14.6135 36.9235 14.3055C36.5476 13.1095 35.7756 12.3682 34.5036 12.2042C33.4902 12.0682 32.4796 11.9336 31.4769 11.7895C29.4809 11.4802 28.7756 11.8175 27.6769 13.5535C26.7222 15.0575 25.4596 16.0989 23.5702 15.9829C22.3942 15.9055 21.4009 15.3469 20.5142 14.5949C19.4049 13.6589 18.3062 13.5535 17.0236 14.2282C16.0116 14.7589 15.0089 15.2989 14.0062 15.8389C12.7329 16.5322 12.2316 17.4962 12.3956 18.9522C12.7622 22.3269 10.9796 24.3042 7.43157 24.2749C5.74356 24.0136 4.59687 24.8816 3.9209 26.5789C3.61287 27.3496 3.19824 28.0829 2.82089 28.8456C2.07024 30.3869 2.20488 31.3322 3.35287 32.6042C5.57954 35.0535 5.21289 37.9176 2.4462 39.7016C2.29162 39.7976 2.13819 39.8842 1.9929 39.9896C1.0569 40.6936 0.5849 41.6002 0.796894 42.7949C0.971508 43.7696 1.22088 44.7336 1.30887 45.7176C1.48235 47.6069 2.49421 48.5522 4.33556 48.9376C6.93822 49.4869 8.1822 51.3376 7.85554 53.8549C7.77692 54.4229 7.55545 54.9442 7.35423 55.4842C6.90088 56.6882 7.11158 57.7882 7.99954 58.7229C8.59822 59.3495 9.24354 59.9282 9.85023 60.5549C11.2289 62.0109 12.7142 62.3096 14.6235 61.4522C17.2835 60.2562 19.6756 61.4707 20.6102 64.2375C20.6876 64.4695 20.7449 64.7016 20.8129 64.9322C21.1409 66.1856 21.9222 66.9669 23.2222 67.1496C24.4675 67.3335 25.7102 67.5069 26.9636 67.6509C28.2662 67.7962 29.2195 67.2656 29.8769 66.1376C31.7169 62.9842 34.5036 62.4842 37.2902 64.8069C38.3302 65.6749 39.5076 65.8002 40.7222 65.1535C41.6769 64.6522 42.6222 64.1415 43.5662 63.6309C45.0995 62.7829 45.5342 61.9335 45.3222 60.1695C44.9849 57.2389 46.7969 55.1362 49.7462 55.0602C50.1022 55.0496 50.4702 55.1082 50.8262 55.1082C52.0022 55.0976 52.9089 54.6255 53.4489 53.5455C53.9889 52.4762 54.5195 51.3962 55.0409 50.3162C55.6662 49.0135 55.4835 47.9349 54.4995 46.8549C52.1182 44.2615 52.5035 41.4069 55.5115 39.5375C56.6502 38.8335 57.1796 37.8402 56.9582 36.5095ZM66.6292 20.8614C64.5465 20.8413 62.8785 19.1454 62.9079 17.0534C62.9264 15 64.6812 13.312 66.7545 13.36C68.8559 13.408 70.4759 15.076 70.4559 17.1787C70.4373 19.28 68.7785 20.8707 66.6292 20.8614ZM66.7732 10.6027C63.1572 10.5732 60.1892 13.4467 60.1585 17.0147C60.1211 20.688 62.9745 23.58 66.6572 23.5987C70.3025 23.6187 73.2052 20.7747 73.2332 17.1787C73.2532 13.572 70.3612 10.632 66.7732 10.6027Z" fill="white"/>
</svg>
