<svg width="132" height="145" viewBox="0 0 132 145" fill="none" xmlns="http://www.w3.org/2000/svg">
<path fill-rule="evenodd" clip-rule="evenodd" d="M46.4447 99.3861L122.362 1.73397C123.663 0.0609283 126.039 -0.215833 127.73 1.06161L130.079 2.83612C131.77 4.11357 132.052 6.53077 130.751 8.20382L102.372 44.7071L98.5926 49.5687C97.2633 51.9124 95.8845 54.6135 94.3957 57.5301C91.1546 63.8795 87.3921 71.2503 82.4842 78.1795C74.4357 89.5428 63.5051 99.8509 50.5894 105.091C50.4654 105.12 50.347 105.148 50.2337 105.175C48.9087 105.493 48.2652 105.647 47.1168 104.754C45.4437 103.453 45.144 101.059 46.4447 99.3861ZM23.7026 36.4241C35.6843 33.9771 47.2756 32.9469 58.393 32.8793C68.3291 32.8189 77.8796 33.5327 86.9992 34.6848L67.9397 61.1005L67.3722 61.763C65.2695 61.971 63.4705 63.362 62.74 65.3447C61.9126 61.2875 58.3474 58.3685 54.2066 58.3634C51.3009 58.3763 48.5924 59.835 46.9824 62.2539C45.4078 59.7571 42.6625 58.2425 39.7107 58.242C34.9623 58.2417 31.1126 62.0903 31.1113 66.8387C31.1223 68.0354 31.3831 69.2167 31.8768 70.3069C28.0299 71.1129 25.2715 74.5008 25.2623 78.4312C25.274 80.6481 26.17 82.7687 27.7513 84.3224C25.3128 85.939 23.8413 88.6657 23.8291 91.5915C23.8416 95.1119 25.959 98.2833 29.2057 99.6445C28.8823 100.53 28.717 101.465 28.7174 102.408C28.7184 106.851 32.3197 110.452 36.7625 110.453C38.1872 110.452 39.5863 110.073 40.8166 109.355C40.1694 110.585 39.8271 111.953 39.8189 113.343C39.8196 118.136 43.7052 122.02 48.4975 122.019C49.8888 122.018 51.2593 121.682 52.4936 121.04C54.0888 122.763 56.3271 123.748 58.6752 123.759C63.0293 123.743 66.6642 120.433 67.0846 116.099C68.5174 116.944 70.1485 117.393 71.8118 117.403C77.0088 117.403 81.2219 113.19 81.2215 107.993C81.2116 105.675 80.3459 103.441 78.7906 101.722C79.3076 101.818 79.8324 101.868 80.3584 101.869C85.1602 101.87 89.053 97.9768 89.0527 93.1749C89.0519 90.7416 88.0313 88.4201 86.239 86.7743C88.6646 85.1208 90.1196 82.3799 90.1349 79.4445L92.0421 75.7646C96.4105 70.1997 98.8927 64.4488 101.375 58.6978C102.299 56.5564 103.223 54.4149 104.245 52.2831L112.745 40.9757C120.06 45.7139 124.112 53.8734 120.476 63.914C117.11 73.2063 113.474 75.0361 109.473 77.0498L109.414 77.0796C109.232 83.5383 109.181 90.5393 109.13 97.5402C109.026 111.921 108.921 126.3 107.682 135.977C106.939 140.015 104.993 140.515 102.976 140.944C88.6822 143.98 74.8126 145.026 61.2252 144.671C47.6377 145.026 33.7681 143.98 19.4742 140.944C17.4572 140.515 15.5111 140.015 14.768 135.977C13.5292 126.3 13.4247 111.92 13.3201 97.5399C13.2692 90.5392 13.2183 83.5382 13.0366 77.0796L12.9773 77.0498C8.97585 75.0361 5.3399 73.2063 1.97456 63.914C-3.60281 48.5141 6.50582 39.936 23.7026 36.4241ZM45.3884 41.8957C45.3875 39.8217 43.7064 38.1406 41.6325 38.1397C39.5574 38.1392 37.8748 39.8207 37.8739 41.8957C37.8733 43.9717 39.5564 45.6548 41.6325 45.6542C43.7075 45.6533 45.3889 43.9707 45.3884 41.8957ZM62.2044 49.1806C62.2032 47.0445 60.471 45.3135 58.3349 45.3137C56.1988 45.3135 54.4667 47.0445 54.4655 49.1806C54.4653 51.3177 56.1978 53.0502 58.3349 53.05C60.4721 53.0502 62.2046 51.3177 62.2044 49.1806ZM23.9613 54.8026C23.962 52.178 21.8349 50.0497 19.2102 50.0489C16.5845 50.0482 14.4558 52.1769 14.4566 54.8026C14.4573 57.4273 16.5856 59.5544 19.2102 59.5536C21.8339 59.5529 23.9606 57.4263 23.9613 54.8026ZM23.2908 68.2876C23.291 66.6447 21.9591 65.3128 20.3162 65.3129C18.6732 65.3128 17.3414 66.6447 17.3415 68.2876C17.3414 69.9305 18.6732 71.2624 20.3162 71.2622C21.9591 71.2624 23.291 69.9305 23.2908 68.2876ZM96.2745 109.658C96.2746 107.711 94.6957 106.132 92.7482 106.132C90.8006 106.132 89.2218 107.711 89.2219 109.658C89.2218 111.606 90.8006 113.185 92.7482 113.185C94.6957 113.185 96.2746 111.606 96.2745 109.658ZM91.6608 129.299C91.6603 127.027 89.8178 125.185 87.5458 125.186C85.2748 125.187 83.434 127.028 83.4335 129.299C83.434 131.57 85.2748 133.411 87.5458 133.411C89.8178 133.412 91.6603 131.571 91.6608 129.299ZM32.8087 128.934C32.8082 127.171 31.3786 125.741 29.615 125.741C27.8503 125.74 26.4192 127.17 26.4186 128.934C26.4191 130.699 27.8503 132.129 29.615 132.128C31.3786 132.128 32.8082 130.698 32.8087 128.934ZM59.7893 134.166C59.7892 131.207 57.3904 128.808 54.4312 128.808C51.472 128.808 49.0731 131.207 49.0731 134.166C49.0731 137.125 51.472 139.524 54.4312 139.524C57.3904 139.524 59.7892 137.125 59.7893 134.166Z" fill="#19AAEC"/>
</svg>
